<svg xmlns="http://www.w3.org/2000/svg" width="800" height="800"><path d="M-40,948L-162,963L180,956Z" fill="#811cec" stroke="#811cec" stroke-width="1.51"/><path d="M-143,-197L-49,-195L501,-193Z" fill="#5d23e6" stroke="#5d23e6" stroke-width="1.51"/><path d="M-49,-195L242,-172L501,-193Z" fill="#5924db" stroke="#5924db" stroke-width="1.51"/><path d="M180,956L-162,963L511,993Z" fill="#7c1fde" stroke="#7c1fde" stroke-width="1.51"/><path d="M875,521L855,643L925,511Z" fill="#7b21d2" stroke="#7b21d2" stroke-width="1.51"/><path d="M735,944L511,993L947,904Z" fill="#8f19e4" stroke="#8f19e4" stroke-width="1.51"/><path d="M861,902L735,944L947,904Z" fill="#9615eb" stroke="#9615eb" stroke-width="1.51"/><path d="M925,511L855,643L953,695Z" fill="#821ed8" stroke="#821ed8" stroke-width="1.51"/><path d="M889,152L918,173L965,46Z" fill="#7a20df" stroke="#7a20df" stroke-width="1.51"/><path d="M929,-77L892,-14L965,46Z" fill="#7f1dea" stroke="#7f1dea" stroke-width="1.51"/><path d="M924,-154L929,-77L965,46Z" fill="#811cee" stroke="#811cee" stroke-width="1.51"/><path d="M918,173L933,221L965,46Z" fill="#7b20de" stroke="#7b20de" stroke-width="1.51"/><path d="M900,849L947,904L967,710Z" fill="#9616eb" stroke="#9616eb" stroke-width="1.51"/><path d="M885,765L900,849L967,710Z" fill="#9019e5" stroke="#9019e5" stroke-width="1.51"/><path d="M925,511L953,695L967,710Z" fill="#871dde" stroke="#871dde" stroke-width="1.51"/><path d="M853,407L925,511L982,419Z" fill="#7522cc" stroke="#7522cc" stroke-width="1.51"/><path d="M925,511L967,710L982,419Z" fill="#801fd7" stroke="#801fd7" stroke-width="1.51"/><path d="M933,221L871,276L983,360Z" fill="#7522d2" stroke="#7522d2" stroke-width="1.51"/><path d="M860,383L982,419L983,360Z" fill="#7322cb" stroke="#7322cb" stroke-width="1.51"/><path d="M871,276L860,383L983,360Z" fill="#7223cb" stroke="#7223cb" stroke-width="1.51"/><path d="M965,46L933,221L983,360Z" fill="#7a1fda" stroke="#7a1fda" stroke-width="1.51"/><path d="M860,383L853,407L982,419Z" fill="#7023c6" stroke="#7023c6" stroke-width="1.51"/><path d="M892,-14L819,28L965,46Z" fill="#7b1ee4" stroke="#7b1ee4" stroke-width="1.51"/><path d="M819,28L889,152L965,46Z" fill="#791fdf" stroke="#791fdf" stroke-width="1.51"/><path d="M953,695L885,765L967,710Z" fill="#8d1ae3" stroke="#8d1ae3" stroke-width="1.51"/><path d="M855,643L885,765L953,695Z" fill="#881dde" stroke="#881dde" stroke-width="1.51"/><path d="M853,407L875,521L925,511Z" fill="#7522cc" stroke="#7522cc" stroke-width="1.51"/><path d="M900,849L864,880L947,904Z" fill="#9815ed" stroke="#9815ed" stroke-width="1.51"/><path d="M864,880L861,902L947,904Z" fill="#9814ed" stroke="#9814ed" stroke-width="1.51"/><path d="M924,-154L888,-161L929,-77Z" fill="#811bf3" stroke="#811bf3" stroke-width="1.51"/><path d="M918,173L871,276L933,221Z" fill="#7521d5" stroke="#7521d5" stroke-width="1.51"/><path d="M889,152L871,276L918,173Z" fill="#7521d6" stroke="#7521d6" stroke-width="1.51"/><path d="M888,-161L892,-14L929,-77Z" fill="#7f1cee" stroke="#7f1cee" stroke-width="1.51"/><path d="M819,28L798,133L889,152Z" fill="#7321d9" stroke="#7321d9" stroke-width="1.51"/><path d="M888,-161L781,-181L892,-14Z" fill="#7b1dec" stroke="#7b1dec" stroke-width="1.51"/><path d="M781,-181L720,-51L892,-14Z" fill="#761fe5" stroke="#761fe5" stroke-width="1.51"/><path d="M853,407L792,440L875,521Z" fill="#6f23c7" stroke="#6f23c7" stroke-width="1.51"/><path d="M768,589L855,643L875,521Z" fill="#7921d0" stroke="#7921d0" stroke-width="1.51"/><path d="M777,777L864,880L885,765Z" fill="#8c1be2" stroke="#8c1be2" stroke-width="1.51"/><path d="M855,643L777,777L885,765Z" fill="#851ddc" stroke="#851ddc" stroke-width="1.51"/><path d="M783,241L871,276L889,152Z" fill="#7022d0" stroke="#7022d0" stroke-width="1.51"/><path d="M798,133L783,241L889,152Z" fill="#7022d2" stroke="#7022d2" stroke-width="1.51"/><path d="M720,-51L819,28L892,-14Z" fill="#7420e0" stroke="#7420e0" stroke-width="1.51"/><path d="M885,765L864,880L900,849Z" fill="#9218e7" stroke="#9218e7" stroke-width="1.51"/><path d="M783,241L860,383L871,276Z" fill="#6d24ca" stroke="#6d24ca" stroke-width="1.51"/><path d="M777,777L745,824L864,880Z" fill="#8a1ce0" stroke="#8a1ce0" stroke-width="1.51"/><path d="M792,440L768,589L875,521Z" fill="#7223c9" stroke="#7223c9" stroke-width="1.51"/><path d="M783,241L701,378L860,383Z" fill="#6825c2" stroke="#6825c2" stroke-width="1.51"/><path d="M756,602L777,777L855,643Z" fill="#7d20d4" stroke="#7d20d4" stroke-width="1.51"/><path d="M745,824L861,902L864,880Z" fill="#9019e6" stroke="#9019e6" stroke-width="1.51"/><path d="M701,378L792,440L860,383Z" fill="#6625be" stroke="#6625be" stroke-width="1.51"/><path d="M745,824L735,944L861,902Z" fill="#8e1ae4" stroke="#8e1ae4" stroke-width="1.51"/><path d="M792,440L853,407L860,383Z" fill="#6b24c2" stroke="#6b24c2" stroke-width="1.51"/><path d="M768,589L756,602L855,643Z" fill="#7821cf" stroke="#7821cf" stroke-width="1.51"/><path d="M756,602L641,638L777,777Z" fill="#7822ce" stroke="#7822ce" stroke-width="1.51"/><path d="M670,520L768,589L792,440Z" fill="#6c24c3" stroke="#6c24c3" stroke-width="1.51"/><path d="M720,-51L762,38L819,28Z" fill="#7021dc" stroke="#7021dc" stroke-width="1.51"/><path d="M762,38L798,133L819,28Z" fill="#7122d8" stroke="#7122d8" stroke-width="1.51"/><path d="M311,944L180,956L511,993Z" fill="#7721d1" stroke="#7721d1" stroke-width="1.51"/><path d="M692,917L735,944L745,824Z" fill="#8a1ce0" stroke="#8a1ce0" stroke-width="1.51"/><path d="M641,638L661,793L777,777Z" fill="#7a21d0" stroke="#7a21d0" stroke-width="1.51"/><path d="M501,-193L606,-102L781,-181Z" fill="#6922dd" stroke="#6922dd" stroke-width="1.51"/><path d="M671,465L670,520L792,440Z" fill="#6625bd" stroke="#6625bd" stroke-width="1.51"/><path d="M762,38L695,80L798,133Z" fill="#6c22d4" stroke="#6c22d4" stroke-width="1.51"/><path d="M672,155L783,241L798,133Z" fill="#6923cc" stroke="#6923cc" stroke-width="1.51"/><path d="M695,80L672,155L798,133Z" fill="#6924ce" stroke="#6924ce" stroke-width="1.51"/><path d="M701,378L671,465L792,440Z" fill="#6325bb" stroke="#6325bb" stroke-width="1.51"/><path d="M606,-102L720,-51L781,-181Z" fill="#6e21df" stroke="#6e21df" stroke-width="1.51"/><path d="M600,213L701,378L783,241Z" fill="#6225c0" stroke="#6225c0" stroke-width="1.51"/><path d="M672,155L600,213L783,241Z" fill="#6324c5" stroke="#6324c5" stroke-width="1.51"/><path d="M692,917L511,993L735,944Z" fill="#881cde" stroke="#881cde" stroke-width="1.51"/><path d="M670,520L756,602L768,589Z" fill="#7023c6" stroke="#7023c6" stroke-width="1.51"/><path d="M661,793L745,824L777,777Z" fill="#821ed8" stroke="#821ed8" stroke-width="1.51"/><path d="M720,-51L695,80L762,38Z" fill="#6c22d7" stroke="#6c22d7" stroke-width="1.51"/><path d="M670,520L641,638L756,602Z" fill="#6e24c5" stroke="#6e24c5" stroke-width="1.51"/><path d="M600,213L615,380L701,378Z" fill="#5b26b8" stroke="#5b26b8" stroke-width="1.51"/><path d="M610,-38L695,80L720,-51Z" fill="#6823d5" stroke="#6823d5" stroke-width="1.51"/><path d="M650,809L692,917L745,824Z" fill="#841eda" stroke="#841eda" stroke-width="1.51"/><path d="M661,793L650,809L745,824Z" fill="#7f1fd6" stroke="#7f1fd6" stroke-width="1.51"/><path d="M610,-38L585,33L695,80Z" fill="#6424ce" stroke="#6424ce" stroke-width="1.51"/><path d="M606,-102L610,-38L720,-51Z" fill="#6823d7" stroke="#6823d7" stroke-width="1.51"/><path d="M641,638L540,713L661,793Z" fill="#7223c9" stroke="#7223c9" stroke-width="1.51"/><path d="M615,380L671,465L701,378Z" fill="#5c26b5" stroke="#5c26b5" stroke-width="1.51"/><path d="M585,33L672,155L695,80Z" fill="#6324cb" stroke="#6324cb" stroke-width="1.51"/><path d="M650,809L503,843L692,917Z" fill="#7d20d4" stroke="#7d20d4" stroke-width="1.51"/><path d="M503,843L511,993L692,917Z" fill="#7f1fd5" stroke="#7f1fd5" stroke-width="1.51"/><path d="M503,843L475,927L511,993Z" fill="#7921d0" stroke="#7921d0" stroke-width="1.51"/><path d="M567,405L537,572L670,520Z" fill="#5e26b6" stroke="#5e26b6" stroke-width="1.51"/><path d="M537,572L641,638L670,520Z" fill="#6725be" stroke="#6725be" stroke-width="1.51"/><path d="M615,380L583,393L671,465Z" fill="#5926b2" stroke="#5926b2" stroke-width="1.51"/><path d="M567,405L670,520L671,465Z" fill="#5f26b7" stroke="#5f26b7" stroke-width="1.51"/><path d="M583,393L567,405L671,465Z" fill="#5926b1" stroke="#5926b1" stroke-width="1.51"/><path d="M527,188L600,213L672,155Z" fill="#5d26c0" stroke="#5d26c0" stroke-width="1.51"/><path d="M585,33L527,188L672,155Z" fill="#5e25c4" stroke="#5e25c4" stroke-width="1.51"/><path d="M600,213L561,214L615,380Z" fill="#5926b8" stroke="#5926b8" stroke-width="1.51"/><path d="M540,713L650,809L661,793Z" fill="#7722cd" stroke="#7722cd" stroke-width="1.51"/><path d="M493,142L527,188L585,33Z" fill="#5826c0" stroke="#5826c0" stroke-width="1.51"/><path d="M561,214L583,393L615,380Z" fill="#5726b4" stroke="#5726b4" stroke-width="1.51"/><path d="M537,572L533,602L641,638Z" fill="#6525bc" stroke="#6525bc" stroke-width="1.51"/><path d="M540,713L503,843L650,809Z" fill="#7322cb" stroke="#7322cb" stroke-width="1.51"/><path d="M533,602L540,713L641,638Z" fill="#6924c0" stroke="#6924c0" stroke-width="1.51"/><path d="M561,214L468,374L583,393Z" fill="#5327b0" stroke="#5327b0" stroke-width="1.51"/><path d="M488,83L493,142L585,33Z" fill="#5926c2" stroke="#5926c2" stroke-width="1.51"/><path d="M527,188L561,214L600,213Z" fill="#5926bb" stroke="#5926bb" stroke-width="1.51"/><path d="M606,-102L569,-22L610,-38Z" fill="#6324d2" stroke="#6324d2" stroke-width="1.51"/><path d="M569,-22L585,33L610,-38Z" fill="#6124ce" stroke="#6124ce" stroke-width="1.51"/><path d="M434,482L537,572L567,405Z" fill="#5627af" stroke="#5627af" stroke-width="1.51"/><path d="M501,-193L476,-101L606,-102Z" fill="#5f24d4" stroke="#5f24d4" stroke-width="1.51"/><path d="M476,-101L569,-22L606,-102Z" fill="#5f24d1" stroke="#5f24d1" stroke-width="1.51"/><path d="M468,374L567,405L583,393Z" fill="#5227ab" stroke="#5227ab" stroke-width="1.51"/><path d="M405,242L468,374L561,214Z" fill="#4f27af" stroke="#4f27af" stroke-width="1.51"/><path d="M569,-22L488,83L585,33Z" fill="#5c25c8" stroke="#5c25c8" stroke-width="1.51"/><path d="M434,482L467,566L537,572Z" fill="#5827b0" stroke="#5827b0" stroke-width="1.51"/><path d="M527,188L405,242L561,214Z" fill="#5326b5" stroke="#5326b5" stroke-width="1.51"/><path d="M468,374L434,482L567,405Z" fill="#4f27a8" stroke="#4f27a8" stroke-width="1.51"/><path d="M432,-1L488,83L569,-22Z" fill="#5825c5" stroke="#5825c5" stroke-width="1.51"/><path d="M476,-101L432,-1L569,-22Z" fill="#5a25c9" stroke="#5a25c9" stroke-width="1.51"/><path d="M411,779L503,843L540,713Z" fill="#6d24c4" stroke="#6d24c4" stroke-width="1.51"/><path d="M458,864L475,927L503,843Z" fill="#7423cb" stroke="#7423cb" stroke-width="1.51"/><path d="M533,602L412,622L540,713Z" fill="#6225ba" stroke="#6225ba" stroke-width="1.51"/><path d="M412,622L411,779L540,713Z" fill="#6325bb" stroke="#6325bb" stroke-width="1.51"/><path d="M467,566L412,622L533,602Z" fill="#5c26b4" stroke="#5c26b4" stroke-width="1.51"/><path d="M467,566L533,602L537,572Z" fill="#5e26b6" stroke="#5e26b6" stroke-width="1.51"/><path d="M493,142L405,242L527,188Z" fill="#5127b5" stroke="#5127b5" stroke-width="1.51"/><path d="M242,-172L311,-119L501,-193Z" fill="#5625cf" stroke="#5625cf" stroke-width="1.51"/><path d="M411,779L458,864L503,843Z" fill="#6e24c6" stroke="#6e24c6" stroke-width="1.51"/><path d="M475,927L311,944L511,993Z" fill="#7722ce" stroke="#7722ce" stroke-width="1.51"/><path d="M311,-119L476,-101L501,-193Z" fill="#5626cc" stroke="#5626cc" stroke-width="1.51"/><path d="M405,242L380,368L468,374Z" fill="#4927a7" stroke="#4927a7" stroke-width="1.51"/><path d="M488,83L324,142L493,142Z" fill="#5027b8" stroke="#5027b8" stroke-width="1.51"/><path d="M324,142L405,242L493,142Z" fill="#4c27b2" stroke="#4c27b2" stroke-width="1.51"/><path d="M432,-1L323,69L488,83Z" fill="#5027bc" stroke="#5027bc" stroke-width="1.51"/><path d="M323,69L324,142L488,83Z" fill="#4e26b9" stroke="#4e26b9" stroke-width="1.51"/><path d="M366,259L380,368L405,242Z" fill="#4927a9" stroke="#4927a9" stroke-width="1.51"/><path d="M336,752L411,779L412,622Z" fill="#6126b9" stroke="#6126b9" stroke-width="1.51"/><path d="M380,368L434,482L468,374Z" fill="#4827a2" stroke="#4827a2" stroke-width="1.51"/><path d="M303,-69L432,-1L476,-101Z" fill="#5226c4" stroke="#5226c4" stroke-width="1.51"/><path d="M311,-119L303,-69L476,-101Z" fill="#5426c9" stroke="#5426c9" stroke-width="1.51"/><path d="M458,864L311,944L475,927Z" fill="#7223c9" stroke="#7223c9" stroke-width="1.51"/><path d="M434,482L394,606L467,566Z" fill="#5527ae" stroke="#5527ae" stroke-width="1.51"/><path d="M394,606L412,622L467,566Z" fill="#5826b1" stroke="#5826b1" stroke-width="1.51"/><path d="M71,937L-40,948L180,956Z" fill="#7e1ee4" stroke="#7e1ee4" stroke-width="1.51"/><path d="M349,491L394,606L434,482Z" fill="#5027aa" stroke="#5027aa" stroke-width="1.51"/><path d="M411,779L313,821L458,864Z" fill="#6924c1" stroke="#6924c1" stroke-width="1.51"/><path d="M313,821L311,944L458,864Z" fill="#6e23c8" stroke="#6e23c8" stroke-width="1.51"/><path d="M380,368L349,491L434,482Z" fill="#4a27a4" stroke="#4a27a4" stroke-width="1.51"/><path d="M303,-69L323,69L432,-1Z" fill="#5126c2" stroke="#5126c2" stroke-width="1.51"/><path d="M233,937L180,956L311,944Z" fill="#7821d7" stroke="#7821d7" stroke-width="1.51"/><path d="M279,873L311,944L313,821Z" fill="#7123cd" stroke="#7123cd" stroke-width="1.51"/><path d="M349,491L319,588L394,606Z" fill="#5427b0" stroke="#5427b0" stroke-width="1.51"/><path d="M319,588L336,752L394,606Z" fill="#5c26b7" stroke="#5c26b7" stroke-width="1.51"/><path d="M324,142L366,259L405,242Z" fill="#4b27b1" stroke="#4b27b1" stroke-width="1.51"/><path d="M336,752L313,821L411,779Z" fill="#6724c1" stroke="#6724c1" stroke-width="1.51"/><path d="M394,606L336,752L412,622Z" fill="#5c26b5" stroke="#5c26b5" stroke-width="1.51"/><path d="M319,588L240,657L336,752Z" fill="#5f26bc" stroke="#5f26bc" stroke-width="1.51"/><path d="M240,657L260,730L336,752Z" fill="#6425c2" stroke="#6425c2" stroke-width="1.51"/><path d="M266,490L349,491L380,368Z" fill="#4c27a9" stroke="#4c27a9" stroke-width="1.51"/><path d="M210,321L266,490L380,368Z" fill="#4827a9" stroke="#4827a9" stroke-width="1.51"/><path d="M366,259L210,321L380,368Z" fill="#4a27ac" stroke="#4a27ac" stroke-width="1.51"/><path d="M303,-69L243,-26L323,69Z" fill="#5326c8" stroke="#5326c8" stroke-width="1.51"/><path d="M271,539L319,588L349,491Z" fill="#5427b1" stroke="#5427b1" stroke-width="1.51"/><path d="M324,142L187,250L366,259Z" fill="#4d27b6" stroke="#4d27b6" stroke-width="1.51"/><path d="M187,250L206,288L366,259Z" fill="#4c27b6" stroke="#4c27b6" stroke-width="1.51"/><path d="M206,288L210,321L366,259Z" fill="#4c27b3" stroke="#4c27b3" stroke-width="1.51"/><path d="M323,69L284,101L324,142Z" fill="#5026be" stroke="#5026be" stroke-width="1.51"/><path d="M266,490L271,539L349,491Z" fill="#5127b0" stroke="#5127b0" stroke-width="1.51"/><path d="M243,-26L241,62L323,69Z" fill="#5326c6" stroke="#5326c6" stroke-width="1.51"/><path d="M260,730L313,821L336,752Z" fill="#6724c4" stroke="#6724c4" stroke-width="1.51"/><path d="M241,62L284,101L323,69Z" fill="#5126c2" stroke="#5126c2" stroke-width="1.51"/><path d="M284,101L187,250L324,142Z" fill="#4f27bc" stroke="#4f27bc" stroke-width="1.51"/><path d="M210,321L147,391L266,490Z" fill="#4a27af" stroke="#4a27af" stroke-width="1.51"/><path d="M279,873L233,937L311,944Z" fill="#7522d2" stroke="#7522d2" stroke-width="1.51"/><path d="M271,539L240,657L319,588Z" fill="#5926b8" stroke="#5926b8" stroke-width="1.51"/><path d="M183,805L279,873L313,821Z" fill="#6e23cd" stroke="#6e23cd" stroke-width="1.51"/><path d="M260,730L183,805L313,821Z" fill="#6a24c9" stroke="#6a24c9" stroke-width="1.51"/><path d="M144,120L187,250L284,101Z" fill="#5126c1" stroke="#5126c1" stroke-width="1.51"/><path d="M242,-172L303,-69L311,-119Z" fill="#5625d2" stroke="#5625d2" stroke-width="1.51"/><path d="M187,766L183,805L260,730Z" fill="#6a23cb" stroke="#6a23cb" stroke-width="1.51"/><path d="M242,-172L243,-26L303,-69Z" fill="#5625d1" stroke="#5625d1" stroke-width="1.51"/><path d="M242,-172L136,-110L243,-26Z" fill="#5825d6" stroke="#5825d6" stroke-width="1.51"/><path d="M241,62L144,120L284,101Z" fill="#5226c5" stroke="#5226c5" stroke-width="1.51"/><path d="M-49,-195L136,-110L242,-172Z" fill="#5c23e2" stroke="#5c23e2" stroke-width="1.51"/><path d="M136,-110L175,-23L243,-26Z" fill="#5725d4" stroke="#5725d4" stroke-width="1.51"/><path d="M113,588L240,657L271,539Z" fill="#5b26be" stroke="#5b26be" stroke-width="1.51"/><path d="M183,805L233,937L279,873Z" fill="#7222d2" stroke="#7222d2" stroke-width="1.51"/><path d="M147,391L130,497L266,490Z" fill="#5027b5" stroke="#5027b5" stroke-width="1.51"/><path d="M266,490L130,497L271,539Z" fill="#5426b6" stroke="#5426b6" stroke-width="1.51"/><path d="M130,497L113,588L271,539Z" fill="#5726bc" stroke="#5726bc" stroke-width="1.51"/><path d="M240,657L164,687L260,730Z" fill="#6324c4" stroke="#6324c4" stroke-width="1.51"/><path d="M175,-23L241,62L243,-26Z" fill="#5525cd" stroke="#5525cd" stroke-width="1.51"/><path d="M164,687L187,766L260,730Z" fill="#6724c8" stroke="#6724c8" stroke-width="1.51"/><path d="M183,805L180,956L233,937Z" fill="#7621d6" stroke="#7621d6" stroke-width="1.51"/><path d="M113,588L164,687L240,657Z" fill="#6025c5" stroke="#6025c5" stroke-width="1.51"/><path d="M175,-23L129,38L241,62Z" fill="#5525ce" stroke="#5525ce" stroke-width="1.51"/><path d="M129,38L144,120L241,62Z" fill="#5426cb" stroke="#5426cb" stroke-width="1.51"/><path d="M-49,-195L53,-103L136,-110Z" fill="#5d23e5" stroke="#5d23e5" stroke-width="1.51"/><path d="M71,937L180,956L183,805Z" fill="#7720da" stroke="#7720da" stroke-width="1.51"/><path d="M206,288L67,301L210,321Z" fill="#4e27ba" stroke="#4e27ba" stroke-width="1.51"/><path d="M67,301L147,391L210,321Z" fill="#4e27b8" stroke="#4e27b8" stroke-width="1.51"/><path d="M187,250L67,301L206,288Z" fill="#4f27bc" stroke="#4f27bc" stroke-width="1.51"/><path d="M24,873L71,937L183,805Z" fill="#7720dd" stroke="#7720dd" stroke-width="1.51"/><path d="M144,120L52,145L187,250Z" fill="#5226c6" stroke="#5226c6" stroke-width="1.51"/><path d="M52,145L67,301L187,250Z" fill="#5226c4" stroke="#5226c4" stroke-width="1.51"/><path d="M76,737L183,805L187,766Z" fill="#6c23d0" stroke="#6c23d0" stroke-width="1.51"/><path d="M164,687L76,737L187,766Z" fill="#6924cd" stroke="#6924cd" stroke-width="1.51"/><path d="M84,699L76,737L164,687Z" fill="#6823cf" stroke="#6823cf" stroke-width="1.51"/><path d="M76,737L24,873L183,805Z" fill="#7022d7" stroke="#7022d7" stroke-width="1.51"/><path d="M75,455L130,497L147,391Z" fill="#5127b9" stroke="#5127b9" stroke-width="1.51"/><path d="M113,588L84,699L164,687Z" fill="#6325ca" stroke="#6325ca" stroke-width="1.51"/><path d="M136,-110L35,-56L175,-23Z" fill="#5925da" stroke="#5925da" stroke-width="1.51"/><path d="M35,-56L129,38L175,-23Z" fill="#5825d6" stroke="#5825d6" stroke-width="1.51"/><path d="M52,145L23,286L67,301Z" fill="#5326c7" stroke="#5326c7" stroke-width="1.51"/><path d="M35,-56L82,55L129,38Z" fill="#5825d6" stroke="#5825d6" stroke-width="1.51"/><path d="M61,570L113,588L130,497Z" fill="#5b25c2" stroke="#5b25c2" stroke-width="1.51"/><path d="M53,-103L35,-56L136,-110Z" fill="#5b24e0" stroke="#5b24e0" stroke-width="1.51"/><path d="M129,38L82,55L144,120Z" fill="#5526cf" stroke="#5526cf" stroke-width="1.51"/><path d="M67,301L75,455L147,391Z" fill="#4e26b9" stroke="#4e26b9" stroke-width="1.51"/><path d="M82,55L52,145L144,120Z" fill="#5625ce" stroke="#5625ce" stroke-width="1.51"/><path d="M61,570L84,699L113,588Z" fill="#6124c9" stroke="#6124c9" stroke-width="1.51"/><path d="M75,455L61,570L130,497Z" fill="#5726c0" stroke="#5726c0" stroke-width="1.51"/><path d="M67,301L-1,307L75,455Z" fill="#5027bf" stroke="#5027bf" stroke-width="1.51"/><path d="M-19,782L24,873L76,737Z" fill="#7221dc" stroke="#7221dc" stroke-width="1.51"/><path d="M-70,190L23,286L52,145Z" fill="#5525ce" stroke="#5525ce" stroke-width="1.51"/><path d="M-95,604L-102,642L61,570Z" fill="#6424d3" stroke="#6424d3" stroke-width="1.51"/><path d="M-1,307L-112,373L75,455Z" fill="#5126c1" stroke="#5126c1" stroke-width="1.51"/><path d="M-112,373L-66,498L75,455Z" fill="#5426c5" stroke="#5426c5" stroke-width="1.51"/><path d="M-66,498L61,570L75,455Z" fill="#5925c5" stroke="#5925c5" stroke-width="1.51"/><path d="M-44,74L52,145L82,55Z" fill="#5825d5" stroke="#5825d5" stroke-width="1.51"/><path d="M35,-56L-44,74L82,55Z" fill="#5924db" stroke="#5924db" stroke-width="1.51"/><path d="M61,570L-102,642L84,699Z" fill="#6524d0" stroke="#6524d0" stroke-width="1.51"/><path d="M-19,782L76,737L84,699Z" fill="#6c23d6" stroke="#6c23d6" stroke-width="1.51"/><path d="M-102,642L-19,782L84,699Z" fill="#6b22d8" stroke="#6b22d8" stroke-width="1.51"/><path d="M-70,190L-42,274L23,286Z" fill="#5526cd" stroke="#5526cd" stroke-width="1.51"/><path d="M-49,-195L-11,-87L53,-103Z" fill="#5e23e9" stroke="#5e23e9" stroke-width="1.51"/><path d="M23,286L-1,307L67,301Z" fill="#5226c5" stroke="#5226c5" stroke-width="1.51"/><path d="M24,873L-40,948L71,937Z" fill="#7d1ee7" stroke="#7d1ee7" stroke-width="1.51"/><path d="M-66,498L-95,604L61,570Z" fill="#5f25ce" stroke="#5f25ce" stroke-width="1.51"/><path d="M-11,-87L35,-56L53,-103Z" fill="#5c23e3" stroke="#5c23e3" stroke-width="1.51"/><path d="M-44,74L-70,190L52,145Z" fill="#5725d5" stroke="#5725d5" stroke-width="1.51"/><path d="M-11,-87L-44,74L35,-56Z" fill="#5b24e1" stroke="#5b24e1" stroke-width="1.51"/><path d="M-112,373L-127,430L-66,498Z" fill="#5626c9" stroke="#5626c9" stroke-width="1.51"/><path d="M-134,-72L-44,74L-11,-87Z" fill="#5d23e6" stroke="#5d23e6" stroke-width="1.51"/><path d="M-42,274L-1,307L23,286Z" fill="#5326c8" stroke="#5326c8" stroke-width="1.51"/><path d="M-19,782L-100,865L24,873Z" fill="#781fe5" stroke="#781fe5" stroke-width="1.51"/><path d="M-100,865L-40,948L24,873Z" fill="#7c1de9" stroke="#7c1de9" stroke-width="1.51"/><path d="M-102,642L-132,766L-19,782Z" fill="#7021df" stroke="#7021df" stroke-width="1.51"/><path d="M-42,274L-112,373L-1,307Z" fill="#5326c9" stroke="#5326c9" stroke-width="1.51"/><path d="M-49,-195L-134,-72L-11,-87Z" fill="#6022ed" stroke="#6022ed" stroke-width="1.51"/><path d="M-99,504L-95,604L-66,498Z" fill="#5e24d0" stroke="#5e24d0" stroke-width="1.51"/><path d="M-114,185L-70,190L-44,74Z" fill="#5824d9" stroke="#5824d9" stroke-width="1.51"/><path d="M-134,-72L-179,49L-44,74Z" fill="#5e23e7" stroke="#5e23e7" stroke-width="1.51"/><path d="M-132,766L-100,865L-19,782Z" fill="#761fe5" stroke="#761fe5" stroke-width="1.51"/><path d="M-114,185L-158,232L-70,190Z" fill="#5825d7" stroke="#5825d7" stroke-width="1.51"/><path d="M-143,-197L-134,-72L-49,-195Z" fill="#6121f4" stroke="#6121f4" stroke-width="1.51"/><path d="M-179,49L-114,185L-44,74Z" fill="#5b24df" stroke="#5b24df" stroke-width="1.51"/><path d="M-70,190L-158,232L-42,274Z" fill="#5725d3" stroke="#5725d3" stroke-width="1.51"/><path d="M-158,232L-112,373L-42,274Z" fill="#5626cf" stroke="#5626cf" stroke-width="1.51"/><path d="M-100,865L-162,963L-40,948Z" fill="#811bf1" stroke="#811bf1" stroke-width="1.51"/><path d="M-127,430L-99,504L-66,498Z" fill="#5925cd" stroke="#5925cd" stroke-width="1.51"/><path d="M-99,504L-186,552L-95,604Z" fill="#6124d5" stroke="#6124d5" stroke-width="1.51"/><path d="M-132,766L-175,822L-100,865Z" fill="#791eea" stroke="#791eea" stroke-width="1.51"/><path d="M-175,822L-162,963L-100,865Z" fill="#7f1cf1" stroke="#7f1cf1" stroke-width="1.51"/><path d="M-186,552L-102,642L-95,604Z" fill="#6523d9" stroke="#6523d9" stroke-width="1.51"/><path d="M-186,552L-132,766L-102,642Z" fill="#6b22de" stroke="#6b22de" stroke-width="1.51"/><path d="M-127,430L-186,552L-99,504Z" fill="#5c24d1" stroke="#5c24d1" stroke-width="1.51"/><path d="M-179,49L-158,232L-114,185Z" fill="#5a24de" stroke="#5a24de" stroke-width="1.51"/><path d="M-158,232L-127,430L-112,373Z" fill="#5525cd" stroke="#5525cd" stroke-width="1.51"/><path d="M-186,552L-175,822L-132,766Z" fill="#7120e5" stroke="#7120e5" stroke-width="1.51"/><path d="M-158,232L-186,552L-127,430Z" fill="#5525cc" stroke="#5525cc" stroke-width="1.51"/><path d="M-143,-197L-179,49L-134,-72Z" fill="#6021f0" stroke="#6021f0" stroke-width="1.51"/><path d="M-179,49L-186,552L-158,232Z" fill="#5825d6" stroke="#5825d6" stroke-width="1.51"/></svg>