<svg xmlns="http://www.w3.org/2000/svg" width="800" height="800"><path d="M-40 948l-122 15 342-7z" fill="#811cec" stroke="#811cec" stroke-width="1.51"/><path d="M-143-197l94 2 550 2z" fill="#5d23e6" stroke="#5d23e6" stroke-width="1.51"/><path d="M-49-195l291 23 259-21z" fill="#5924db" stroke="#5924db" stroke-width="1.51"/><path d="M180 956l-342 7 673 30z" fill="#7c1fde" stroke="#7c1fde" stroke-width="1.51"/><path d="M875 521l-20 122 70-132z" fill="#7b21d2" stroke="#7b21d2" stroke-width="1.51"/><path d="M735 944l-224 49 436-89z" fill="#8f19e4" stroke="#8f19e4" stroke-width="1.51"/><path d="M861 902l-126 42 212-40z" fill="#9615eb" stroke="#9615eb" stroke-width="1.51"/><path d="M925 511l-70 132 98 52z" fill="#821ed8" stroke="#821ed8" stroke-width="1.51"/><path d="M889 152l29 21 47-127z" fill="#7a20df" stroke="#7a20df" stroke-width="1.51"/><path d="M929-77l-37 63 73 60z" fill="#7f1dea" stroke="#7f1dea" stroke-width="1.51"/><path d="M924-154l5 77 36 123z" fill="#811cee" stroke="#811cee" stroke-width="1.51"/><path d="M918 173l15 48 32-175z" fill="#7b20de" stroke="#7b20de" stroke-width="1.51"/><path d="M900 849l47 55 20-194z" fill="#9616eb" stroke="#9616eb" stroke-width="1.51"/><path d="M885 765l15 84 67-139z" fill="#9019e5" stroke="#9019e5" stroke-width="1.51"/><path d="M925 511l28 184 14 15z" fill="#871dde" stroke="#871dde" stroke-width="1.51"/><path d="M853 407l72 104 57-92z" fill="#7522cc" stroke="#7522cc" stroke-width="1.51"/><path d="M925 511l42 199 15-291z" fill="#801fd7" stroke="#801fd7" stroke-width="1.51"/><path d="M933 221l-62 55 112 84z" fill="#7522d2" stroke="#7522d2" stroke-width="1.51"/><path d="M860 383l122 36 1-59z" fill="#7322cb" stroke="#7322cb" stroke-width="1.51"/><path d="M871 276l-11 107 123-23z" fill="#7223cb" stroke="#7223cb" stroke-width="1.51"/><path d="M965 46l-32 175 50 139z" fill="#7a1fda" stroke="#7a1fda" stroke-width="1.51"/><path d="M860 383l-7 24 129 12z" fill="#7023c6" stroke="#7023c6" stroke-width="1.51"/><path d="M892-14l-73 42 146 18z" fill="#7b1ee4" stroke="#7b1ee4" stroke-width="1.51"/><path d="M819 28l70 124 76-106z" fill="#791fdf" stroke="#791fdf" stroke-width="1.51"/><path d="M953 695l-68 70 82-55z" fill="#8d1ae3" stroke="#8d1ae3" stroke-width="1.51"/><path d="M855 643l30 122 68-70z" fill="#881dde" stroke="#881dde" stroke-width="1.51"/><path d="M853 407l22 114 50-10z" fill="#7522cc" stroke="#7522cc" stroke-width="1.51"/><path d="M900 849l-36 31 83 24z" fill="#9815ed" stroke="#9815ed" stroke-width="1.51"/><path d="M864 880l-3 22 86 2z" fill="#9814ed" stroke="#9814ed" stroke-width="1.51"/><path d="M924-154l-36-7 41 84z" fill="#811bf3" stroke="#811bf3" stroke-width="1.51"/><path d="M918 173l-47 103 62-55z" fill="#7521d5" stroke="#7521d5" stroke-width="1.51"/><path d="M889 152l-18 124 47-103z" fill="#7521d6" stroke="#7521d6" stroke-width="1.51"/><path d="M888-161l4 147 37-63z" fill="#7f1cee" stroke="#7f1cee" stroke-width="1.51"/><path d="M819 28l-21 105 91 19z" fill="#7321d9" stroke="#7321d9" stroke-width="1.51"/><path d="M888-161l-107-20L892-14z" fill="#7b1dec" stroke="#7b1dec" stroke-width="1.51"/><path d="M781-181L720-51l172 37z" fill="#761fe5" stroke="#761fe5" stroke-width="1.51"/><path d="M853 407l-61 33 83 81z" fill="#6f23c7" stroke="#6f23c7" stroke-width="1.51"/><path d="M768 589l87 54 20-122z" fill="#7921d0" stroke="#7921d0" stroke-width="1.51"/><path d="M777 777l87 103 21-115z" fill="#8c1be2" stroke="#8c1be2" stroke-width="1.51"/><path d="M855 643l-78 134 108-12z" fill="#851ddc" stroke="#851ddc" stroke-width="1.51"/><path d="M783 241l88 35 18-124z" fill="#7022d0" stroke="#7022d0" stroke-width="1.51"/><path d="M798 133l-15 108 106-89z" fill="#7022d2" stroke="#7022d2" stroke-width="1.51"/><path d="M720-51l99 79 73-42z" fill="#7420e0" stroke="#7420e0" stroke-width="1.51"/><path d="M885 765l-21 115 36-31z" fill="#9218e7" stroke="#9218e7" stroke-width="1.51"/><path d="M783 241l77 142 11-107z" fill="#6d24ca" stroke="#6d24ca" stroke-width="1.51"/><path d="M777 777l-32 47 119 56z" fill="#8a1ce0" stroke="#8a1ce0" stroke-width="1.51"/><path d="M792 440l-24 149 107-68z" fill="#7223c9" stroke="#7223c9" stroke-width="1.51"/><path d="M783 241l-82 137 159 5z" fill="#6825c2" stroke="#6825c2" stroke-width="1.51"/><path d="M756 602l21 175 78-134z" fill="#7d20d4" stroke="#7d20d4" stroke-width="1.51"/><path d="M745 824l116 78 3-22z" fill="#9019e6" stroke="#9019e6" stroke-width="1.51"/><path d="M701 378l91 62 68-57z" fill="#6625be" stroke="#6625be" stroke-width="1.51"/><path d="M745 824l-10 120 126-42z" fill="#8e1ae4" stroke="#8e1ae4" stroke-width="1.51"/><path d="M792 440l61-33 7-24z" fill="#6b24c2" stroke="#6b24c2" stroke-width="1.51"/><path d="M768 589l-12 13 99 41z" fill="#7821cf" stroke="#7821cf" stroke-width="1.51"/><path d="M756 602l-115 36 136 139z" fill="#7822ce" stroke="#7822ce" stroke-width="1.51"/><path d="M670 520l98 69 24-149z" fill="#6c24c3" stroke="#6c24c3" stroke-width="1.51"/><path d="M720-51l42 89 57-10z" fill="#7021dc" stroke="#7021dc" stroke-width="1.51"/><path d="M762 38l36 95 21-105z" fill="#7122d8" stroke="#7122d8" stroke-width="1.51"/><path d="M311 944l-131 12 331 37z" fill="#7721d1" stroke="#7721d1" stroke-width="1.51"/><path d="M692 917l43 27 10-120z" fill="#8a1ce0" stroke="#8a1ce0" stroke-width="1.51"/><path d="M641 638l20 155 116-16z" fill="#7a21d0" stroke="#7a21d0" stroke-width="1.51"/><path d="M501-193l105 91 175-79z" fill="#6922dd" stroke="#6922dd" stroke-width="1.51"/><path d="M671 465l-1 55 122-80z" fill="#6625bd" stroke="#6625bd" stroke-width="1.51"/><path d="M762 38l-67 42 103 53z" fill="#6c22d4" stroke="#6c22d4" stroke-width="1.51"/><path d="M672 155l111 86 15-108z" fill="#6923cc" stroke="#6923cc" stroke-width="1.51"/><path d="M695 80l-23 75 126-22z" fill="#6924ce" stroke="#6924ce" stroke-width="1.51"/><path d="M701 378l-30 87 121-25z" fill="#6325bb" stroke="#6325bb" stroke-width="1.51"/><path d="M606-102l114 51 61-130z" fill="#6e21df" stroke="#6e21df" stroke-width="1.51"/><path d="M600 213l101 165 82-137z" fill="#6225c0" stroke="#6225c0" stroke-width="1.51"/><path d="M672 155l-72 58 183 28z" fill="#6324c5" stroke="#6324c5" stroke-width="1.51"/><path d="M692 917l-181 76 224-49z" fill="#881cde" stroke="#881cde" stroke-width="1.51"/><path d="M670 520l86 82 12-13z" fill="#7023c6" stroke="#7023c6" stroke-width="1.51"/><path d="M661 793l84 31 32-47z" fill="#821ed8" stroke="#821ed8" stroke-width="1.51"/><path d="M720-51L695 80l67-42z" fill="#6c22d7" stroke="#6c22d7" stroke-width="1.51"/><path d="M670 520l-29 118 115-36z" fill="#6e24c5" stroke="#6e24c5" stroke-width="1.51"/><path d="M600 213l15 167 86-2z" fill="#5b26b8" stroke="#5b26b8" stroke-width="1.51"/><path d="M610-38l85 118 25-131z" fill="#6823d5" stroke="#6823d5" stroke-width="1.51"/><path d="M650 809l42 108 53-93z" fill="#841eda" stroke="#841eda" stroke-width="1.51"/><path d="M661 793l-11 16 95 15z" fill="#7f1fd6" stroke="#7f1fd6" stroke-width="1.51"/><path d="M610-38l-25 71 110 47z" fill="#6424ce" stroke="#6424ce" stroke-width="1.51"/><path d="M606-102l4 64 110-13z" fill="#6823d7" stroke="#6823d7" stroke-width="1.51"/><path d="M641 638l-101 75 121 80z" fill="#7223c9" stroke="#7223c9" stroke-width="1.51"/><path d="M615 380l56 85 30-87z" fill="#5c26b5" stroke="#5c26b5" stroke-width="1.51"/><path d="M585 33l87 122 23-75z" fill="#6324cb" stroke="#6324cb" stroke-width="1.51"/><path d="M650 809l-147 34 189 74z" fill="#7d20d4" stroke="#7d20d4" stroke-width="1.51"/><path d="M503 843l8 150 181-76z" fill="#7f1fd5" stroke="#7f1fd5" stroke-width="1.51"/><path d="M503 843l-28 84 36 66z" fill="#7921d0" stroke="#7921d0" stroke-width="1.51"/><path d="M567 405l-30 167 133-52z" fill="#5e26b6" stroke="#5e26b6" stroke-width="1.51"/><path d="M537 572l104 66 29-118z" fill="#6725be" stroke="#6725be" stroke-width="1.51"/><path d="M615 380l-32 13 88 72z" fill="#5926b2" stroke="#5926b2" stroke-width="1.51"/><path d="M567 405l103 115 1-55z" fill="#5f26b7" stroke="#5f26b7" stroke-width="1.51"/><path d="M583 393l-16 12 104 60z" fill="#5926b1" stroke="#5926b1" stroke-width="1.51"/><path d="M527 188l73 25 72-58z" fill="#5d26c0" stroke="#5d26c0" stroke-width="1.51"/><path d="M585 33l-58 155 145-33z" fill="#5e25c4" stroke="#5e25c4" stroke-width="1.51"/><path d="M600 213l-39 1 54 166z" fill="#5926b8" stroke="#5926b8" stroke-width="1.51"/><path d="M540 713l110 96 11-16z" fill="#7722cd" stroke="#7722cd" stroke-width="1.51"/><path d="M493 142l34 46 58-155z" fill="#5826c0" stroke="#5826c0" stroke-width="1.51"/><path d="M561 214l22 179 32-13z" fill="#5726b4" stroke="#5726b4" stroke-width="1.51"/><path d="M537 572l-4 30 108 36z" fill="#6525bc" stroke="#6525bc" stroke-width="1.51"/><path d="M540 713l-37 130 147-34z" fill="#7322cb" stroke="#7322cb" stroke-width="1.51"/><path d="M533 602l7 111 101-75z" fill="#6924c0" stroke="#6924c0" stroke-width="1.51"/><path d="M561 214l-93 160 115 19z" fill="#5327b0" stroke="#5327b0" stroke-width="1.51"/><path d="M488 83l5 59 92-109z" fill="#5926c2" stroke="#5926c2" stroke-width="1.51"/><path d="M527 188l34 26 39-1z" fill="#5926bb" stroke="#5926bb" stroke-width="1.51"/><path d="M606-102l-37 80 41-16z" fill="#6324d2" stroke="#6324d2" stroke-width="1.51"/><path d="M569-22l16 55 25-71z" fill="#6124ce" stroke="#6124ce" stroke-width="1.51"/><path d="M434 482l103 90 30-167z" fill="#5627af" stroke="#5627af" stroke-width="1.51"/><path d="M501-193l-25 92 130-1z" fill="#5f24d4" stroke="#5f24d4" stroke-width="1.51"/><path d="M476-101l93 79 37-80z" fill="#5f24d1" stroke="#5f24d1" stroke-width="1.51"/><path d="M468 374l99 31 16-12z" fill="#5227ab" stroke="#5227ab" stroke-width="1.51"/><path d="M405 242l63 132 93-160z" fill="#4f27af" stroke="#4f27af" stroke-width="1.51"/><path d="M569-22L488 83l97-50z" fill="#5c25c8" stroke="#5c25c8" stroke-width="1.51"/><path d="M434 482l33 84 70 6z" fill="#5827b0" stroke="#5827b0" stroke-width="1.51"/><path d="M527 188l-122 54 156-28z" fill="#5326b5" stroke="#5326b5" stroke-width="1.51"/><path d="M468 374l-34 108 133-77z" fill="#4f27a8" stroke="#4f27a8" stroke-width="1.51"/><path d="M432-1l56 84 81-105z" fill="#5825c5" stroke="#5825c5" stroke-width="1.51"/><path d="M476-101L432-1l137-21z" fill="#5a25c9" stroke="#5a25c9" stroke-width="1.51"/><path d="M411 779l92 64 37-130z" fill="#6d24c4" stroke="#6d24c4" stroke-width="1.51"/><path d="M458 864l17 63 28-84z" fill="#7423cb" stroke="#7423cb" stroke-width="1.51"/><path d="M533 602l-121 20 128 91z" fill="#6225ba" stroke="#6225ba" stroke-width="1.51"/><path d="M412 622l-1 157 129-66z" fill="#6325bb" stroke="#6325bb" stroke-width="1.51"/><path d="M467 566l-55 56 121-20z" fill="#5c26b4" stroke="#5c26b4" stroke-width="1.51"/><path d="M467 566l66 36 4-30z" fill="#5e26b6" stroke="#5e26b6" stroke-width="1.51"/><path d="M493 142l-88 100 122-54z" fill="#5127b5" stroke="#5127b5" stroke-width="1.51"/><path d="M242-172l69 53 190-74z" fill="#5625cf" stroke="#5625cf" stroke-width="1.51"/><path d="M411 779l47 85 45-21z" fill="#6e24c6" stroke="#6e24c6" stroke-width="1.51"/><path d="M475 927l-164 17 200 49z" fill="#7722ce" stroke="#7722ce" stroke-width="1.51"/><path d="M311-119l165 18 25-92z" fill="#5626cc" stroke="#5626cc" stroke-width="1.51"/><path d="M405 242l-25 126 88 6z" fill="#4927a7" stroke="#4927a7" stroke-width="1.51"/><path d="M488 83l-164 59h169z" fill="#5027b8" stroke="#5027b8" stroke-width="1.51"/><path d="M324 142l81 100 88-100z" fill="#4c27b2" stroke="#4c27b2" stroke-width="1.51"/><path d="M432-1L323 69l165 14z" fill="#5027bc" stroke="#5027bc" stroke-width="1.51"/><path d="M323 69l1 73 164-59z" fill="#4e26b9" stroke="#4e26b9" stroke-width="1.51"/><path d="M366 259l14 109 25-126z" fill="#4927a9" stroke="#4927a9" stroke-width="1.51"/><path d="M336 752l75 27 1-157z" fill="#6126b9" stroke="#6126b9" stroke-width="1.51"/><path d="M380 368l54 114 34-108z" fill="#4827a2" stroke="#4827a2" stroke-width="1.51"/><path d="M303-69L432-1l44-100z" fill="#5226c4" stroke="#5226c4" stroke-width="1.51"/><path d="M311-119l-8 50 173-32z" fill="#5426c9" stroke="#5426c9" stroke-width="1.51"/><path d="M458 864l-147 80 164-17z" fill="#7223c9" stroke="#7223c9" stroke-width="1.51"/><path d="M434 482l-40 124 73-40z" fill="#5527ae" stroke="#5527ae" stroke-width="1.51"/><path d="M394 606l18 16 55-56z" fill="#5826b1" stroke="#5826b1" stroke-width="1.51"/><path d="M71 937l-111 11 220 8z" fill="#7e1ee4" stroke="#7e1ee4" stroke-width="1.51"/><path d="M349 491l45 115 40-124z" fill="#5027aa" stroke="#5027aa" stroke-width="1.51"/><path d="M411 779l-98 42 145 43z" fill="#6924c1" stroke="#6924c1" stroke-width="1.51"/><path d="M313 821l-2 123 147-80z" fill="#6e23c8" stroke="#6e23c8" stroke-width="1.51"/><path d="M380 368l-31 123 85-9z" fill="#4a27a4" stroke="#4a27a4" stroke-width="1.51"/><path d="M303-69l20 138L432-1z" fill="#5126c2" stroke="#5126c2" stroke-width="1.51"/><path d="M233 937l-53 19 131-12z" fill="#7821d7" stroke="#7821d7" stroke-width="1.51"/><path d="M279 873l32 71 2-123z" fill="#7123cd" stroke="#7123cd" stroke-width="1.51"/><path d="M349 491l-30 97 75 18z" fill="#5427b0" stroke="#5427b0" stroke-width="1.51"/><path d="M319 588l17 164 58-146z" fill="#5c26b7" stroke="#5c26b7" stroke-width="1.51"/><path d="M324 142l42 117 39-17z" fill="#4b27b1" stroke="#4b27b1" stroke-width="1.51"/><path d="M336 752l-23 69 98-42z" fill="#6724c1" stroke="#6724c1" stroke-width="1.51"/><path d="M394 606l-58 146 76-130z" fill="#5c26b5" stroke="#5c26b5" stroke-width="1.51"/><path d="M319 588l-79 69 96 95z" fill="#5f26bc" stroke="#5f26bc" stroke-width="1.51"/><path d="M240 657l20 73 76 22z" fill="#6425c2" stroke="#6425c2" stroke-width="1.51"/><path d="M266 490l83 1 31-123z" fill="#4c27a9" stroke="#4c27a9" stroke-width="1.51"/><path d="M210 321l56 169 114-122z" fill="#4827a9" stroke="#4827a9" stroke-width="1.51"/><path d="M366 259l-156 62 170 47z" fill="#4a27ac" stroke="#4a27ac" stroke-width="1.51"/><path d="M303-69l-60 43 80 95z" fill="#5326c8" stroke="#5326c8" stroke-width="1.51"/><path d="M271 539l48 49 30-97z" fill="#5427b1" stroke="#5427b1" stroke-width="1.51"/><path d="M324 142L187 250l179 9z" fill="#4d27b6" stroke="#4d27b6" stroke-width="1.51"/><path d="M187 250l19 38 160-29z" fill="#4c27b6" stroke="#4c27b6" stroke-width="1.51"/><path d="M206 288l4 33 156-62z" fill="#4c27b3" stroke="#4c27b3" stroke-width="1.51"/><path d="M323 69l-39 32 40 41z" fill="#5026be" stroke="#5026be" stroke-width="1.51"/><path d="M266 490l5 49 78-48z" fill="#5127b0" stroke="#5127b0" stroke-width="1.51"/><path d="M243-26l-2 88 82 7z" fill="#5326c6" stroke="#5326c6" stroke-width="1.51"/><path d="M260 730l53 91 23-69z" fill="#6724c4" stroke="#6724c4" stroke-width="1.51"/><path d="M241 62l43 39 39-32z" fill="#5126c2" stroke="#5126c2" stroke-width="1.51"/><path d="M284 101l-97 149 137-108z" fill="#4f27bc" stroke="#4f27bc" stroke-width="1.51"/><path d="M210 321l-63 70 119 99z" fill="#4a27af" stroke="#4a27af" stroke-width="1.51"/><path d="M279 873l-46 64 78 7z" fill="#7522d2" stroke="#7522d2" stroke-width="1.51"/><path d="M271 539l-31 118 79-69z" fill="#5926b8" stroke="#5926b8" stroke-width="1.51"/><path d="M183 805l96 68 34-52z" fill="#6e23cd" stroke="#6e23cd" stroke-width="1.51"/><path d="M260 730l-77 75 130 16z" fill="#6a24c9" stroke="#6a24c9" stroke-width="1.51"/><path d="M144 120l43 130 97-149z" fill="#5126c1" stroke="#5126c1" stroke-width="1.51"/><path d="M242-172l61 103 8-50z" fill="#5625d2" stroke="#5625d2" stroke-width="1.51"/><path d="M187 766l-4 39 77-75z" fill="#6a23cb" stroke="#6a23cb" stroke-width="1.51"/><path d="M242-172l1 146 60-43z" fill="#5625d1" stroke="#5625d1" stroke-width="1.51"/><path d="M242-172l-106 62 107 84z" fill="#5825d6" stroke="#5825d6" stroke-width="1.51"/><path d="M241 62l-97 58 140-19z" fill="#5226c5" stroke="#5226c5" stroke-width="1.51"/><path d="M-49-195l185 85 106-62z" fill="#5c23e2" stroke="#5c23e2" stroke-width="1.51"/><path d="M136-110l39 87 68-3z" fill="#5725d4" stroke="#5725d4" stroke-width="1.51"/><path d="M113 588l127 69 31-118z" fill="#5b26be" stroke="#5b26be" stroke-width="1.51"/><path d="M183 805l50 132 46-64z" fill="#7222d2" stroke="#7222d2" stroke-width="1.51"/><path d="M147 391l-17 106 136-7z" fill="#5027b5" stroke="#5027b5" stroke-width="1.51"/><path d="M266 490l-136 7 141 42z" fill="#5426b6" stroke="#5426b6" stroke-width="1.51"/><path d="M130 497l-17 91 158-49z" fill="#5726bc" stroke="#5726bc" stroke-width="1.51"/><path d="M240 657l-76 30 96 43z" fill="#6324c4" stroke="#6324c4" stroke-width="1.51"/><path d="M175-23l66 85 2-88z" fill="#5525cd" stroke="#5525cd" stroke-width="1.51"/><path d="M164 687l23 79 73-36z" fill="#6724c8" stroke="#6724c8" stroke-width="1.51"/><path d="M183 805l-3 151 53-19z" fill="#7621d6" stroke="#7621d6" stroke-width="1.51"/><path d="M113 588l51 99 76-30z" fill="#6025c5" stroke="#6025c5" stroke-width="1.51"/><path d="M175-23l-46 61 112 24z" fill="#5525ce" stroke="#5525ce" stroke-width="1.51"/><path d="M129 38l15 82 97-58z" fill="#5426cb" stroke="#5426cb" stroke-width="1.51"/><path d="M-49-195l102 92 83-7z" fill="#5d23e5" stroke="#5d23e5" stroke-width="1.51"/><path d="M71 937l109 19 3-151z" fill="#7720da" stroke="#7720da" stroke-width="1.51"/><path d="M206 288L67 301l143 20z" fill="#4e27ba" stroke="#4e27ba" stroke-width="1.51"/><path d="M67 301l80 90 63-70z" fill="#4e27b8" stroke="#4e27b8" stroke-width="1.51"/><path d="M187 250L67 301l139-13z" fill="#4f27bc" stroke="#4f27bc" stroke-width="1.51"/><path d="M24 873l47 64 112-132z" fill="#7720dd" stroke="#7720dd" stroke-width="1.51"/><path d="M144 120l-92 25 135 105z" fill="#5226c6" stroke="#5226c6" stroke-width="1.51"/><path d="M52 145l15 156 120-51z" fill="#5226c4" stroke="#5226c4" stroke-width="1.51"/><path d="M76 737l107 68 4-39z" fill="#6c23d0" stroke="#6c23d0" stroke-width="1.51"/><path d="M164 687l-88 50 111 29z" fill="#6924cd" stroke="#6924cd" stroke-width="1.51"/><path d="M84 699l-8 38 88-50z" fill="#6823cf" stroke="#6823cf" stroke-width="1.51"/><path d="M76 737L24 873l159-68z" fill="#7022d7" stroke="#7022d7" stroke-width="1.51"/><path d="M75 455l55 42 17-106z" fill="#5127b9" stroke="#5127b9" stroke-width="1.51"/><path d="M113 588L84 699l80-12z" fill="#6325ca" stroke="#6325ca" stroke-width="1.51"/><path d="M136-110L35-56l140 33z" fill="#5925da" stroke="#5925da" stroke-width="1.51"/><path d="M35-56l94 94 46-61z" fill="#5825d6" stroke="#5825d6" stroke-width="1.51"/><path d="M52 145L23 286l44 15z" fill="#5326c7" stroke="#5326c7" stroke-width="1.51"/><path d="M35-56L82 55l47-17z" fill="#5825d6" stroke="#5825d6" stroke-width="1.51"/><path d="M61 570l52 18 17-91z" fill="#5b25c2" stroke="#5b25c2" stroke-width="1.51"/><path d="M53-103L35-56l101-54z" fill="#5b24e0" stroke="#5b24e0" stroke-width="1.51"/><path d="M129 38L82 55l62 65z" fill="#5526cf" stroke="#5526cf" stroke-width="1.51"/><path d="M67 301l8 154 72-64z" fill="#4e26b9" stroke="#4e26b9" stroke-width="1.51"/><path d="M82 55l-30 90 92-25z" fill="#5625ce" stroke="#5625ce" stroke-width="1.51"/><path d="M61 570l23 129 29-111z" fill="#6124c9" stroke="#6124c9" stroke-width="1.51"/><path d="M75 455L61 570l69-73z" fill="#5726c0" stroke="#5726c0" stroke-width="1.51"/><path d="M67 301l-68 6 76 148z" fill="#5027bf" stroke="#5027bf" stroke-width="1.51"/><path d="M-19 782l43 91 52-136z" fill="#7221dc" stroke="#7221dc" stroke-width="1.51"/><path d="M-70 190l93 96 29-141z" fill="#5525ce" stroke="#5525ce" stroke-width="1.51"/><path d="M-95 604l-7 38 163-72z" fill="#6424d3" stroke="#6424d3" stroke-width="1.51"/><path d="M-1 307l-111 66 187 82z" fill="#5126c1" stroke="#5126c1" stroke-width="1.51"/><path d="M-112 373l46 125 141-43z" fill="#5426c5" stroke="#5426c5" stroke-width="1.51"/><path d="M-66 498l127 72 14-115z" fill="#5925c5" stroke="#5925c5" stroke-width="1.51"/><path d="M-44 74l96 71 30-90z" fill="#5825d5" stroke="#5825d5" stroke-width="1.51"/><path d="M35-56L-44 74 82 55z" fill="#5924db" stroke="#5924db" stroke-width="1.51"/><path d="M61 570l-163 72 186 57z" fill="#6524d0" stroke="#6524d0" stroke-width="1.51"/><path d="M-19 782l95-45 8-38z" fill="#6c23d6" stroke="#6c23d6" stroke-width="1.51"/><path d="M-102 642l83 140 103-83z" fill="#6b22d8" stroke="#6b22d8" stroke-width="1.51"/><path d="M-70 190l28 84 65 12z" fill="#5526cd" stroke="#5526cd" stroke-width="1.51"/><path d="M-49-195l38 108 64-16z" fill="#5e23e9" stroke="#5e23e9" stroke-width="1.51"/><path d="M23 286l-24 21 68-6z" fill="#5226c5" stroke="#5226c5" stroke-width="1.51"/><path d="M24 873l-64 75 111-11z" fill="#7d1ee7" stroke="#7d1ee7" stroke-width="1.51"/><path d="M-66 498l-29 106 156-34z" fill="#5f25ce" stroke="#5f25ce" stroke-width="1.51"/><path d="M-11-87l46 31 18-47z" fill="#5c23e3" stroke="#5c23e3" stroke-width="1.51"/><path d="M-44 74l-26 116 122-45z" fill="#5725d5" stroke="#5725d5" stroke-width="1.51"/><path d="M-11-87L-44 74 35-56z" fill="#5b24e1" stroke="#5b24e1" stroke-width="1.51"/><path d="M-112 373l-15 57 61 68z" fill="#5626c9" stroke="#5626c9" stroke-width="1.51"/><path d="M-134-72l90 146 33-161z" fill="#5d23e6" stroke="#5d23e6" stroke-width="1.51"/><path d="M-42 274l41 33 24-21z" fill="#5326c8" stroke="#5326c8" stroke-width="1.51"/><path d="M-19 782l-81 83 124 8z" fill="#781fe5" stroke="#781fe5" stroke-width="1.51"/><path d="M-100 865l60 83 64-75z" fill="#7c1de9" stroke="#7c1de9" stroke-width="1.51"/><path d="M-102 642l-30 124 113 16z" fill="#7021df" stroke="#7021df" stroke-width="1.51"/><path d="M-42 274l-70 99 111-66z" fill="#5326c9" stroke="#5326c9" stroke-width="1.51"/><path d="M-49-195l-85 123 123-15z" fill="#6022ed" stroke="#6022ed" stroke-width="1.51"/><path d="M-99 504l4 100 29-106z" fill="#5e24d0" stroke="#5e24d0" stroke-width="1.51"/><path d="M-114 185l44 5 26-116z" fill="#5824d9" stroke="#5824d9" stroke-width="1.51"/><path d="M-134-72l-45 121 135 25z" fill="#5e23e7" stroke="#5e23e7" stroke-width="1.51"/><path d="M-132 766l32 99 81-83z" fill="#761fe5" stroke="#761fe5" stroke-width="1.51"/><path d="M-114 185l-44 47 88-42z" fill="#5825d7" stroke="#5825d7" stroke-width="1.51"/><path d="M-143-197l9 125 85-123z" fill="#6121f4" stroke="#6121f4" stroke-width="1.51"/><path d="M-179 49l65 136 70-111z" fill="#5b24df" stroke="#5b24df" stroke-width="1.51"/><path d="M-70 190l-88 42 116 42z" fill="#5725d3" stroke="#5725d3" stroke-width="1.51"/><path d="M-158 232l46 141 70-99z" fill="#5626cf" stroke="#5626cf" stroke-width="1.51"/><path d="M-100 865l-62 98 122-15z" fill="#811bf1" stroke="#811bf1" stroke-width="1.51"/><path d="M-127 430l28 74 33-6z" fill="#5925cd" stroke="#5925cd" stroke-width="1.51"/><path d="M-99 504l-87 48 91 52z" fill="#6124d5" stroke="#6124d5" stroke-width="1.51"/><path d="M-132 766l-43 56 75 43z" fill="#791eea" stroke="#791eea" stroke-width="1.51"/><path d="M-175 822l13 141 62-98z" fill="#7f1cf1" stroke="#7f1cf1" stroke-width="1.51"/><path d="M-186 552l84 90 7-38z" fill="#6523d9" stroke="#6523d9" stroke-width="1.51"/><path d="M-186 552l54 214 30-124z" fill="#6b22de" stroke="#6b22de" stroke-width="1.51"/><path d="M-127 430l-59 122 87-48z" fill="#5c24d1" stroke="#5c24d1" stroke-width="1.51"/><path d="M-179 49l21 183 44-47z" fill="#5a24de" stroke="#5a24de" stroke-width="1.51"/><path d="M-158 232l31 198 15-57z" fill="#5525cd" stroke="#5525cd" stroke-width="1.51"/><path d="M-186 552l11 270 43-56z" fill="#7120e5" stroke="#7120e5" stroke-width="1.51"/><path d="M-158 232l-28 320 59-122z" fill="#5525cc" stroke="#5525cc" stroke-width="1.51"/><path d="M-143-197l-36 246 45-121z" fill="#6021f0" stroke="#6021f0" stroke-width="1.51"/><path d="M-179 49l-7 503 28-320z" fill="#5825d6" stroke="#5825d6" stroke-width="1.51"/></svg>